HIERARCHY
ROOT Hips
{
	OFFSET 0.000000 0.000000 0.000000
	CHANNELS 6 Xposition Yposition Zposition Zrotation Xrotation Yrotation
	JOINT Spine1
	{
		OFFSET 0.000000 -2.776947 -0.000001
		CHANNELS 6 Xposition Yposition Zposition Zrotation Xrotation Yrotation
		JOINT Neck
		{
			OFFSET 0.000000 -2.213880 -0.000001
			CHANNELS 6 Xposition Yposition Zposition Zrotation Xrotation Yrotation
			JOINT Head
			{
				OFFSET 0.000000 -1.407680 -0.181636
				CHANNELS 6 Xposition Yposition Zposition Zrotation Xrotation Yrotation
				End Site
				{
					OFFSET 0.000000 -1.816356 -0.000001
				}
			}
		}
		JOINT LeftShoulder
		{
			OFFSET 0.365767 -1.787590 0.048012
			CHANNELS 6 Xposition Yposition Zposition Zrotation Xrotation Yrotation
			JOINT LeftArm
			{
				OFFSET 1.305160 0.000000 0.000000
				CHANNELS 6 Xposition Yposition Zposition Zrotation Xrotation Yrotation
				JOINT LeftForeArm
				{
					OFFSET 2.559210 0.000000 0.000000
					CHANNELS 6 Xposition Yposition Zposition Zrotation Xrotation Yrotation
					JOINT LeftHand
					{
						OFFSET 2.378449 0.000000 0.000000
						CHANNELS 6 Xposition Yposition Zposition Zrotation Xrotation Yrotation
						End Site
						{
							OFFSET 1.362267 0.000000 0.000000
						}
					}
				}
			}
		}
		JOINT RightShoulder
		{
			OFFSET -0.360721 -1.787590 0.048012
			CHANNELS 6 Xposition Yposition Zposition Zrotation Xrotation Yrotation
			JOINT RightArm
			{
				OFFSET -1.305160 0.000000 0.000000
				CHANNELS 6 Xposition Yposition Zposition Zrotation Xrotation Yrotation
				JOINT RightForeArm
				{
					OFFSET -2.559210 0.000000 0.000000
					CHANNELS 6 Xposition Yposition Zposition Zrotation Xrotation Yrotation
					JOINT RightHand
					{
						OFFSET -2.378450 0.000000 0.000000
						CHANNELS 6 Xposition Yposition Zposition Zrotation Xrotation Yrotation
						End Site
						{
							OFFSET -1.362267 0.000000 0.000000
						}
					}
				}
			}
		}
	}
	JOINT LeftUpLeg
	{
		OFFSET 0.908180 0.000000 0.000000
		CHANNELS 6 Xposition Yposition Zposition Zrotation Xrotation Yrotation
		JOINT LeftLeg
		{
			OFFSET 0.000000 3.819490 0.000001
			CHANNELS 6 Xposition Yposition Zposition Zrotation Xrotation Yrotation
			JOINT LeftFoot
			{
				OFFSET 0.000000 4.004300 0.000001
				CHANNELS 6 Xposition Yposition Zposition Zrotation Xrotation Yrotation
				JOINT LeftToeBase
				{
					OFFSET 0.000000 0.590317 -1.362270
					CHANNELS 6 Xposition Yposition Zposition Zrotation Xrotation Yrotation
					End Site
					{
						OFFSET 0.000000 0.000000 -0.363271
					}
				}
			}
		}
	}
	JOINT RightUpLeg
	{
		OFFSET -0.908180 0.000000 0.000000
		CHANNELS 6 Xposition Yposition Zposition Zrotation Xrotation Yrotation
		JOINT RightLeg
		{
			OFFSET 0.000000 3.819490 0.000001
			CHANNELS 6 Xposition Yposition Zposition Zrotation Xrotation Yrotation
			JOINT RightFoot
			{
				OFFSET 0.000000 4.004300 0.000001
				CHANNELS 6 Xposition Yposition Zposition Zrotation Xrotation Yrotation
				JOINT RightToeBase
				{
					OFFSET 0.000000 0.590317 -1.362270
					CHANNELS 6 Xposition Yposition Zposition Zrotation Xrotation Yrotation
					End Site
					{
						OFFSET 0.000000 0.000000 -0.363271
					}
				}
			}
		}
	}
}
MOTION
Frames: 5
Frame Time: 0.041667
-0.394766 -7.578570 -0.208456 -2.489021 18.342051 1.957854 0.000000 -2.776947 -0.000001 -11.589619 -20.025018 0.323710 -0.000000 -2.213881 -0.000001 -4.859711 10.507783 5.019487 0.000001 -1.407681 -0.181636 10.059689 0.257486 2.768767 0.365767 -1.787589 0.048012 -17.656749 -3.524424 -1.299598 1.305161 -0.000000 0.000001 10.251219 -11.043510 8.440909 2.559210 0.000002 0.000000 0.116632 -13.021277 1.363688 2.378449 -0.000001 -0.000002 -6.796923 -12.141045 -15.122696 -0.360721 -1.787591 0.048012 13.762463 -0.320010 4.350413 -1.305160 -0.000000 -0.000000 -6.279361 26.959539 -22.474481 -2.559210 0.000002 -0.000001 42.447402 -25.117865 -71.562931 -2.378451 0.000001 -0.000001 34.236351 6.451919 -1.688545 0.908180 0.000001 0.000000 -26.745539 -28.030126 -28.928378 -0.000000 3.819488 0.000001 11.343728 26.936458 -19.561493 -0.000001 4.004301 0.000001 8.778285 3.508539 -18.763214 0.000000 0.590316 -1.362270 -0.000000 -0.000005 0.000004 -0.908180 0.000000 0.000000 31.338848 -29.327388 3.775259 0.000001 3.819490 0.000001 -22.118536 21.193597 27.337663 0.000001 4.004302 0.000001 -10.996450 -7.246488 26.137956 0.000000 0.590317 -1.362270 -0.000001 -0.000003 0.000010 
-0.396702 -7.577633 -0.208995 -2.413146 18.332646 1.869235 0.000000 -2.776945 -0.000001 -11.510015 -20.033597 0.315114 -0.000000 -2.213880 -0.000001 -4.547938 10.605705 4.712193 0.000000 -1.407682 -0.181636 9.798010 0.355202 2.543740 0.365766 -1.787589 0.048012 -17.588360 -3.658545 -1.353193 1.305160 -0.000001 0.000000 10.063660 -10.989890 8.769521 2.559210 0.000002 0.000002 0.171749 -12.953736 1.402665 2.378449 0.000002 -0.000002 -6.980697 -12.051200 -15.103114 -0.360721 -1.787591 0.048011 13.821693 -0.342776 4.375216 -1.305161 0.000000 0.000000 -6.576474 27.058139 -22.409420 -2.559211 0.000002 -0.000001 42.420252 -25.063178 -71.525645 -2.378452 -0.000000 -0.000001 34.196462 6.490894 -1.602652 0.908180 0.000001 -0.000000 -26.775306 -28.072636 -29.139513 -0.000001 3.819489 0.000001 11.133377 26.998727 -19.361035 0.000000 4.004300 0.000002 8.761765 3.537607 -18.638159 0.000000 0.590315 -1.362270 0.000000 -0.000004 0.000002 -0.908180 0.000001 -0.000000 31.262233 -29.303759 3.751852 0.000001 3.819489 0.000001 -22.124019 21.228102 27.393913 0.000000 4.004300 0.000001 -10.966190 -7.285662 26.144533 -0.000000 0.590317 -1.362269 -0.000003 -0.000004 0.000002 
-0.398431 -7.576836 -0.209511 -2.333876 18.334330 1.795287 0.000000 -2.776947 -0.000002 -11.429026 -20.053072 0.277559 0.000001 -2.213882 -0.000001 -4.135668 10.726232 4.401943 0.000000 -1.407680 -0.181637 9.386063 0.433529 2.360391 0.365767 -1.787591 0.048012 -17.524898 -3.796087 -1.398978 1.305161 -0.000004 0.000000 9.864575 -10.818090 9.096499 2.559211 -0.000002 0.000000 0.211487 -12.930147 1.450362 2.378450 -0.000001 -0.000001 -7.119619 -12.007111 -15.150012 -0.360720 -1.787589 0.048012 13.896244 -0.334986 4.396453 -1.305160 -0.000001 -0.000001 -6.887442 27.236296 -22.339293 -2.559209 0.000001 -0.000001 42.519475 -25.066741 -71.367772 -2.378451 -0.000003 0.000002 34.198020 6.484254 -1.573250 0.908180 -0.000000 0.000000 -26.850693 -28.099813 -29.200957 -0.000001 3.819489 0.000001 11.092058 27.031351 -19.284412 -0.000000 4.004301 0.000001 8.771234 3.503890 -18.598721 -0.000000 0.590316 -1.362270 -0.000000 -0.000003 0.000003 -0.908180 -0.000000 0.000000 31.194119 -29.288534 3.731511 0.000001 3.819489 0.000001 -22.147667 21.245158 27.403667 0.000001 4.004301 0.000001 -10.969391 -7.335798 26.190565 0.000000 0.590317 -1.362270 -0.000000 -0.000003 0.000002 
-0.400259 -7.576165 -0.210323 -2.247944 18.341833 1.703129 0.000000 -2.776947 -0.000001 -11.301003 -20.095154 0.232830 0.000000 -2.213881 -0.000001 -3.765523 10.865566 4.090900 -0.000000 -1.407681 -0.181638 8.980895 0.515291 2.166178 0.365767 -1.787590 0.048012 -17.536553 -3.942313 -1.418837 1.305161 0.000000 0.000000 9.715985 -10.735978 9.440716 2.559211 0.000002 0.000001 0.273161 -12.840972 1.465494 2.378451 -0.000002 -0.000001 -7.227634 -11.903625 -15.161084 -0.360721 -1.787591 0.048012 13.928777 -0.353285 4.404952 -1.305161 0.000002 -0.000001 -7.304394 27.251137 -22.168190 -2.559209 0.000000 -0.000001 42.416103 -24.954371 -71.468934 -2.378452 -0.000001 -0.000000 34.140151 6.580583 -1.573327 0.908180 0.000000 -0.000000 -26.946672 -28.130322 -29.171475 -0.000001 3.819489 0.000001 11.136810 27.049858 -19.247166 -0.000001 4.004300 0.000002 8.725066 3.494973 -18.635358 0.000000 0.590317 -1.362270 -0.000001 0.000001 0.000004 -0.908180 0.000000 -0.000000 31.122040 -29.263030 3.708585 -0.000000 3.819489 0.000001 -22.170577 21.248278 27.494812 0.000001 4.004299 0.000001 -10.973730 -7.370010 26.176234 0.000000 0.590317 -1.362270 0.000001 -0.000004 -0.000001 
-0.401301 -7.575920 -0.210822 -2.156444 18.354072 1.634626 -0.000000 -2.776947 -0.000001 -11.198505 -20.131592 0.180997 0.000000 -2.213879 -0.000001 -3.277582 11.031650 3.771010 -0.000000 -1.407681 -0.181638 8.433222 0.538557 2.014108 0.365767 -1.787588 0.048012 -17.492108 -4.079846 -1.503790 1.305160 -0.000002 0.000000 9.543058 -10.768651 9.884252 2.559212 -0.000003 0.000001 0.343293 -12.666599 1.414085 2.378450 0.000000 -0.000002 -7.333940 -11.717402 -15.130213 -0.360720 -1.787590 0.048012 13.971424 -0.356652 4.399489 -1.305160 0.000001 -0.000000 -7.669801 27.410958 -22.015848 -2.559211 0.000002 -0.000001 42.484463 -24.959793 -71.394642 -2.378451 -0.000000 0.000001 34.107052 6.609969 -1.504487 0.908180 0.000000 -0.000001 -27.031276 -28.164874 -29.204663 0.000000 3.819489 0.000001 11.105604 27.076303 -19.183795 0.000000 4.004301 0.000001 8.744441 3.455825 -18.629903 -0.000000 0.590317 -1.362270 -0.000002 0.000000 0.000006 -0.908180 0.000001 -0.000001 31.049330 -29.244275 3.685997 0.000001 3.819489 0.000001 -22.202187 21.228781 27.539217 0.000001 4.004301 0.000001 -10.970117 -7.369184 26.198038 0.000000 0.590318 -1.362270 -0.000003 -0.000002 0.000001 
